<svg width="123" height="38" viewBox="0 0 123 38" fill="none" xmlns="http://www.w3.org/2000/svg">
<path d="M4.79863 25.6902C4.05629 24.8813 3.68459 23.7109 3.68459 22.1801V11.0493C3.68459 10.9711 3.74094 10.906 3.81788 10.8941L6.44585 10.5108C6.7287 10.4695 6.9812 10.6889 6.9812 10.9755V22.1801C6.9812 22.8076 7.134 23.2962 7.43961 23.6458C7.74521 23.9954 8.18194 24.1713 8.7498 24.1713H8.92103C9.00772 24.1713 9.07708 24.2407 9.07708 24.3276V26.5924C9.07708 26.765 8.93728 26.9051 8.76497 26.9051H8.03022C6.61816 26.9051 5.54096 26.5001 4.79863 25.6902Z" fill="white"/>
<path d="M11.3984 15.4323H14.0491C14.2214 15.4323 14.3612 15.5724 14.3612 15.745V26.7607C14.3612 26.8475 14.2918 26.917 14.2051 26.917H11.2423C11.1556 26.917 11.0863 26.8475 11.0863 26.7607V15.745C11.0863 15.5724 11.2261 15.4323 11.3984 15.4323Z" fill="white"/>
<path d="M18.696 26.6771C17.9504 26.4143 17.2991 26.0723 16.7443 25.6533C16.5427 25.5002 16.5048 25.2103 16.6532 25.0062L17.7575 23.4873C17.8106 23.4145 17.9125 23.4026 17.9829 23.459C18.411 23.8021 18.9333 24.0725 19.5478 24.2711C20.2251 24.4894 20.9339 24.599 21.6773 24.599C22.2744 24.599 22.7068 24.523 22.9766 24.3699C23.2454 24.2169 23.3808 23.9802 23.3808 23.6588C23.3808 23.3233 23.2172 23.0649 22.8899 22.8825C22.5627 22.7001 21.9905 22.5362 21.1755 22.3907C20.1568 22.2018 19.3451 21.964 18.7404 21.6795C18.1357 21.3951 17.6849 21.0086 17.3869 20.52C17.0889 20.0314 16.9393 19.4006 16.9393 18.6276C16.9393 17.9566 17.1279 17.3584 17.5072 16.834C17.8854 16.3085 18.4207 15.9014 19.1122 15.6093C19.8036 15.3173 20.6001 15.1718 21.5028 15.1718C22.464 15.1718 23.3516 15.3325 24.1665 15.6527C24.82 15.9101 25.3933 16.2466 25.8885 16.6635C26.089 16.8329 26.102 17.1391 25.9254 17.3334L24.6835 18.6927C24.6271 18.7546 24.5328 18.759 24.4678 18.7058C24.0863 18.3898 23.6518 18.1455 23.163 17.9729C22.6244 17.784 22.0717 17.6885 21.5039 17.6885C20.4408 17.6885 19.9098 17.987 19.9098 18.5853C19.9098 18.8035 19.9715 18.9826 20.0951 19.1216C20.2186 19.2606 20.4408 19.3811 20.7605 19.4821C21.0802 19.5841 21.5613 19.6938 22.2018 19.8099C23.6138 20.0868 24.6585 20.5211 25.3348 21.1117C26.0121 21.7023 26.3502 22.5231 26.3502 23.573C26.3502 24.6815 25.9384 25.5566 25.1169 26.1983C24.2944 26.8399 23.1338 27.1602 21.6339 27.1602C20.5849 27.1581 19.6052 26.9974 18.696 26.6771Z" fill="white"/>
<path d="M29.8093 25.8889C28.9868 25.029 28.5761 23.8401 28.5761 22.3234V12.7691C28.5761 12.6909 28.6335 12.6247 28.7105 12.6138L31.5173 12.223C31.7047 12.1969 31.8727 12.3424 31.8727 12.5324V15.4323H35.4847C35.657 15.4323 35.7968 15.5724 35.7968 15.745V17.8535C35.7968 18.0261 35.657 18.1662 35.4847 18.1662H31.8727V22.3006C31.8727 22.9281 32.0255 23.4199 32.3311 23.7771C32.6367 24.1343 33.0583 24.3135 33.598 24.3135C33.9621 24.3135 34.2709 24.2625 34.5256 24.1604C34.7391 24.0746 34.9558 23.953 35.1747 23.7956C35.2452 23.7446 35.3427 23.7576 35.3937 23.8282L36.5348 25.3916C36.68 25.5903 36.6497 25.8715 36.4589 26.0289C36.0623 26.3557 35.6256 26.6152 35.1487 26.8085C34.5375 27.056 33.8971 27.1809 33.2273 27.1809C31.7708 27.1798 30.6319 26.7498 29.8093 25.8889Z" fill="white"/>
<path d="M38.9038 26.2721C38.2189 25.6674 37.8775 24.8249 37.8775 23.7457C37.8775 22.6523 38.3034 21.7914 39.1552 21.1638C40.007 20.5374 41.211 20.2236 42.7693 20.2236H45.0841C45.0689 18.6048 44.3277 17.7949 42.8571 17.7949C42.3033 17.7949 41.7691 17.8904 41.2521 18.0793C40.7829 18.2519 40.3527 18.4962 39.9615 18.8122C39.8954 18.8654 39.7989 18.8589 39.7436 18.7937L38.5526 17.3877C38.3825 17.1869 38.4085 16.8818 38.6155 16.7178C39.1649 16.2814 39.774 15.9296 40.4437 15.6625C41.2662 15.3346 42.1061 15.1707 42.9655 15.1707C44.6398 15.1707 45.9099 15.6234 46.7758 16.5267C47.6416 17.4311 48.0751 18.7438 48.0751 20.4646V26.4491C48.0751 26.7086 47.866 26.9181 47.607 26.9181H45.9186C45.8503 26.9181 45.7907 26.8736 45.7701 26.8085L45.3897 25.6055C44.8652 26.1017 44.2908 26.4882 43.6645 26.765C43.0381 27.0419 42.39 27.1809 41.7214 27.1809C40.5271 27.1798 39.5876 26.8769 38.9038 26.2721ZM45.083 23.4395V22.3234H42.6599C42.0628 22.3234 41.5935 22.4363 41.2511 22.6621C40.9086 22.8879 40.7374 23.1985 40.7374 23.5915C40.7374 23.927 40.8794 24.2082 41.1633 24.434C41.4472 24.6598 41.807 24.7727 42.2437 24.7727C43.322 24.7738 44.2681 24.3287 45.083 23.4395Z" fill="white"/>
<path d="M88.6987 26.9811C87.8112 26.4708 87.1263 25.7564 86.6462 24.8368C86.1661 23.9183 85.9255 22.8608 85.9255 21.6654C85.9255 20.5428 86.1726 19.5287 86.6679 18.6243C87.162 17.7199 87.8437 17.0131 88.7095 16.5029C89.5754 15.9926 90.5475 15.7374 91.6247 15.7374C92.7019 15.7374 93.6404 15.9861 94.4412 16.4811C95.2421 16.9773 95.8566 17.6809 96.2868 18.5918C96.7159 19.5038 96.9305 20.5645 96.9305 21.7751V22.1366C96.9305 22.3961 96.7213 22.6057 96.4623 22.6057H88.9176C89.0487 23.3787 89.3944 23.9878 89.9547 24.4318C90.515 24.877 91.2107 25.0995 92.0398 25.0995C93.0888 25.0995 93.9492 24.7782 94.619 24.1343C94.6797 24.0757 94.7739 24.0735 94.8357 24.1311L96.1849 25.4014C96.3811 25.5859 96.3843 25.8997 96.1882 26.0832C94.9983 27.1917 93.5504 27.7454 91.8436 27.7454C90.6342 27.7465 89.5863 27.4914 88.6987 26.9811ZM93.2188 18.8111C92.8254 18.4246 92.2728 18.2313 91.5597 18.2313C90.89 18.2313 90.3329 18.4278 89.8897 18.8219C89.4454 19.2161 89.1441 19.7622 88.9837 20.4625H93.8745C93.83 19.7481 93.6111 19.1976 93.2188 18.8111Z" fill="white"/>
<path d="M101.506 16.1098L101.931 17.4876C103.022 16.3205 104.303 15.7374 105.773 15.7374C107.141 15.7374 108.204 16.1967 108.962 17.1152C109.718 18.0337 110.097 19.317 110.097 20.9651V27.3274C110.097 27.4143 110.028 27.4838 109.941 27.4838H106.957C106.87 27.4838 106.801 27.4143 106.801 27.3274V21.3593C106.801 20.4255 106.645 19.7405 106.332 19.3029C106.018 18.8654 105.491 18.6461 104.748 18.6461C104.296 18.6461 103.861 18.7742 103.438 19.0293C103.015 19.2845 102.652 19.6384 102.347 20.0901V27.3274C102.347 27.4143 102.277 27.4838 102.191 27.4838H99.2063C99.1196 27.4838 99.0502 27.4143 99.0502 27.3274V16.4692C99.0502 16.2097 99.2594 16.0002 99.5184 16.0002H101.358C101.426 16.0002 101.485 16.0447 101.506 16.1098Z" fill="white"/>
<path d="M67.2479 16.1077L67.715 17.5527C68.8356 16.3856 70.2476 15.8026 71.9512 15.8026H72.2351V18.5375H71.8201C71.0777 18.5375 70.3712 18.6721 69.7025 18.9425C69.0328 19.2128 68.4942 19.6091 68.0867 20.1346V27.1722C68.0867 27.3448 67.9469 27.4848 67.7746 27.4848H65.1022C64.9299 27.4848 64.7901 27.3448 64.7901 27.1722V16.3129C64.7901 16.1402 64.9299 16.0002 65.1022 16.0002H67.1006C67.1667 16.0002 67.2274 16.0436 67.2479 16.1077Z" fill="white"/>
<path d="M76.0346 26.9811C75.147 26.4708 74.4621 25.7564 73.9821 24.8368C73.502 23.9183 73.2614 22.8608 73.2614 21.6654C73.2614 20.5428 73.5085 19.5287 74.0037 18.6243C74.4979 17.7199 75.1795 17.0131 76.0454 16.5029C76.9113 15.9926 77.8834 15.7374 78.9606 15.7374C80.0378 15.7374 80.9763 15.9861 81.7771 16.4811C82.578 16.9773 83.1924 17.6809 83.6227 18.5918C84.0518 19.5038 84.2664 20.5645 84.2664 21.7751V22.6067H76.2535C76.3846 23.3798 76.7303 23.9889 77.2906 24.4329C77.8509 24.8781 78.5455 25.1006 79.3756 25.1006C80.4247 25.1006 81.2851 24.7793 81.9548 24.1354C82.0155 24.0768 82.1098 24.0746 82.1716 24.1322L83.5208 25.4025C83.7169 25.587 83.7202 25.9008 83.524 26.0843C82.3341 27.1928 80.8863 27.7465 79.1795 27.7465C77.9701 27.7465 76.9221 27.4914 76.0346 26.9811ZM80.5547 18.8111C80.1613 18.4246 79.6086 18.2313 78.8956 18.2313C78.2258 18.2313 77.6688 18.4278 77.2256 18.8219C76.7813 19.2161 76.48 19.7622 76.3196 20.4625H81.2103C81.1659 19.7481 80.947 19.1976 80.5547 18.8111Z" fill="white"/>
<path d="M61.6571 16.0002H59.9525C59.817 16.0002 59.6967 16.0881 59.6545 16.2184L59.4182 16.9632C58.9663 16.5843 58.4537 16.2846 57.8794 16.0664C57.3039 15.8482 56.7252 15.7385 56.1433 15.7385C55.1094 15.7385 54.1677 15.9795 53.3159 16.4605C52.4641 16.9415 51.7911 17.6277 51.2959 18.5169C50.8006 19.4061 50.5535 20.4277 50.5535 21.5797C50.5535 22.6882 50.7681 23.6545 51.1973 24.4785C51.6264 25.3026 52.2203 25.9334 52.9767 26.3709C53.7331 26.8085 54.6001 27.0267 55.5754 27.0267C56.7978 27.0267 57.8902 26.6043 58.8504 25.7575V26.5229C58.8504 27.4859 58.5632 28.2514 57.9877 28.8203C57.4123 29.3892 56.6808 29.6737 55.7932 29.6737C54.457 29.6737 53.3397 29.2871 52.4435 28.513C52.3763 28.4555 52.2755 28.462 52.2192 28.5315L50.9469 30.1123C50.7898 30.3077 50.8158 30.5889 51 30.7583C51.5061 31.2219 52.1325 31.5965 52.8781 31.8831C53.7873 32.2327 54.8103 32.4086 55.946 32.4086C57.1544 32.4086 58.2283 32.1599 59.1668 31.6649C60.1053 31.1687 60.8335 30.476 61.3505 29.5868C61.8674 28.6976 62.1253 27.6835 62.1253 26.5457V16.4714C62.1253 16.2097 61.9161 16.0002 61.6571 16.0002ZM58.923 23.0725C58.8113 23.2495 58.6781 23.4178 58.5231 23.5709C57.6377 24.4535 56.3199 24.6392 55.2546 24.1246C55.2536 24.1246 55.2536 24.1235 55.2514 24.1235C54.9696 23.9867 54.7041 23.8021 54.47 23.5654C53.3527 22.4417 53.356 20.6253 54.4755 19.5059C55.4085 18.5733 56.8249 18.4202 57.9162 19.0434C58.1362 19.1683 58.3421 19.3235 58.5285 19.5114C58.6802 19.6634 58.8124 19.8306 58.9219 20.0054V23.0725H58.923Z" fill="white"/>
<path d="M13.439 11.9222C12.7237 11.5183 11.8188 11.7724 11.4157 12.4879L11.4114 12.4966C11.0158 13.211 11.2694 14.1132 11.9814 14.5149C12.5471 14.8341 13.2331 14.7418 13.6947 14.3336C13.8139 14.2283 13.9169 14.1023 14.0003 13.9569C14.0025 13.9536 14.0036 13.9514 14.0058 13.9482C14.1206 13.7441 14.1824 13.5247 14.1943 13.3065C14.2257 12.7571 13.9505 12.211 13.439 11.9222Z" fill="white"/>
<path d="M116.229 5.86937C114.602 5.28308 112.712 5.62942 111.39 6.91708C109.542 8.71828 109.499 11.6801 111.298 13.5334L111.32 13.5551L112.239 12.6594C112.23 12.6529 112.224 12.6453 112.216 12.6377C110.911 11.2936 110.942 9.1428 112.283 7.8356C113.243 6.9008 114.614 6.65 115.796 7.0756C116.265 7.24388 116.705 7.51965 117.077 7.90291C117.084 7.91051 117.091 7.91703 117.097 7.92571L118.015 7.03108C118.009 7.0224 118.002 7.01588 117.994 7.00828C117.482 6.4828 116.876 6.1028 116.229 5.86937Z" fill="white"/>
<path d="M118.015 7.03326C118.379 7.41217 118.667 7.83777 118.878 8.28943C119.697 10.045 119.366 12.2002 117.902 13.6257C116.061 15.4193 113.119 15.3857 111.32 13.5551L112.239 12.6594C113.545 13.9829 115.675 14.0046 117.009 12.705C118.072 11.6693 118.311 10.1058 117.717 8.83229C117.566 8.50657 117.359 8.19931 117.097 7.9268L118.015 7.03326Z" fill="white"/>
<path fill-rule="evenodd" clip-rule="evenodd" d="M115.333 8.83771C115.085 8.45337 114.846 8.17868 114.776 8.10051L114.762 8.08531L114.754 8.094C114.684 8.17217 114.443 8.44903 114.193 8.83771H115.333Z" fill="white"/>
<path fill-rule="evenodd" clip-rule="evenodd" d="M113.676 11.4869H115.859C115.922 11.3446 115.969 11.1839 115.992 11.0026H113.54C113.564 11.1839 113.612 11.3457 113.676 11.4869Z" fill="white"/>
<path fill-rule="evenodd" clip-rule="evenodd" d="M113.608 10.1199C113.567 10.2795 113.54 10.4413 113.531 10.6042H116C115.99 10.4413 115.962 10.2795 115.921 10.1199H113.608Z" fill="white"/>
<path fill-rule="evenodd" clip-rule="evenodd" d="M115.569 9.23617H113.959C113.877 9.38925 113.802 9.55211 113.737 9.7204H115.791C115.726 9.55211 115.65 9.38925 115.569 9.23617Z" fill="white"/>
<path fill-rule="evenodd" clip-rule="evenodd" d="M114.774 12.4564C114.774 12.4564 115.248 12.3131 115.609 11.8853H113.931C114.296 12.312 114.774 12.4564 114.774 12.4564Z" fill="white"/>
</svg>
