<svg width="115" height="36" viewBox="0 0 115 36" fill="none" xmlns="http://www.w3.org/2000/svg">
<path d="M4.48653 24.3381C3.79248 23.5718 3.44495 22.463 3.44495 21.0127V10.4678C3.44495 10.3937 3.49763 10.332 3.56957 10.3207L6.02662 9.9576C6.29107 9.91852 6.52715 10.1263 6.52715 10.3978V21.0127C6.52715 21.6072 6.67001 22.0701 6.95574 22.4013C7.24147 22.7325 7.64979 22.8991 8.18072 22.8991H8.34081C8.42186 22.8991 8.48671 22.9649 8.48671 23.0472V25.1928C8.48671 25.3563 8.356 25.489 8.1949 25.489H7.50794C6.18772 25.489 5.18058 25.1054 4.48653 24.3381Z" fill="#07D0BD"/>
<path d="M10.657 14.6201H13.1354C13.2965 14.6201 13.4272 14.7528 13.4272 14.9163V25.3522C13.4272 25.4345 13.3623 25.5003 13.2813 25.5003H10.5111C10.4301 25.5003 10.3652 25.4345 10.3652 25.3522V14.9163C10.3652 14.7528 10.4959 14.6201 10.657 14.6201Z" fill="#07D0BD"/>
<path d="M17.48 25.273C16.7829 25.0241 16.174 24.7001 15.6552 24.3031C15.4667 24.1581 15.4313 23.8834 15.5701 23.6901L16.6026 22.2511C16.6522 22.1822 16.7475 22.1709 16.8133 22.2243C17.2135 22.5494 17.7019 22.8055 18.2764 22.9937C18.9097 23.2005 19.5723 23.3043 20.2674 23.3043C20.8256 23.3043 21.2299 23.2323 21.4822 23.0873C21.7335 22.9423 21.8601 22.7181 21.8601 22.4136C21.8601 22.0958 21.7071 21.851 21.4012 21.6782C21.0952 21.5054 20.5602 21.3501 19.7982 21.2122C18.8458 21.0333 18.0869 20.808 17.5216 20.5385C16.9562 20.269 16.5347 19.9029 16.256 19.44C15.9774 18.9771 15.8376 18.3795 15.8376 17.6472C15.8376 17.0115 16.0139 16.4448 16.3685 15.948C16.7221 15.4502 17.2227 15.0645 17.8691 14.7878C18.5155 14.5111 19.2602 14.3733 20.1042 14.3733C21.003 14.3733 21.8328 14.5255 22.5947 14.8289C23.2057 15.0727 23.7417 15.3915 24.2047 15.7865C24.3922 15.947 24.4043 16.237 24.2392 16.4211L23.078 17.7089C23.0253 17.7675 22.9372 17.7717 22.8764 17.7213C22.5197 17.4219 22.1134 17.1905 21.6565 17.027C21.1529 16.848 20.6362 16.7575 20.1053 16.7575C19.1113 16.7575 18.6148 17.0403 18.6148 17.6071C18.6148 17.8138 18.6726 17.9835 18.7881 18.1152C18.9036 18.2469 19.1113 18.361 19.4102 18.4567C19.7091 18.5534 20.159 18.6573 20.7578 18.7673C22.078 19.0296 23.0547 19.441 23.687 20.0006C24.3202 20.5601 24.6364 21.3377 24.6364 22.3323C24.6364 23.3825 24.2513 24.2115 23.4833 24.8194C22.7143 25.4273 21.6291 25.7307 20.2268 25.7307C19.246 25.7287 18.3301 25.5765 17.48 25.273Z" fill="#07D0BD"/>
<path d="M27.8706 24.5263C27.1015 23.7117 26.7175 22.5854 26.7175 21.1485V12.097C26.7175 12.023 26.7712 11.9602 26.8432 11.9499L29.4674 11.5797C29.6427 11.555 29.7997 11.6928 29.7997 11.8728V14.6201H33.1768C33.3379 14.6201 33.4686 14.7528 33.4686 14.9163V16.9138C33.4686 17.0774 33.3379 17.2101 33.1768 17.2101H29.7997V21.1269C29.7997 21.7214 29.9426 22.1873 30.2283 22.5257C30.514 22.8641 30.9082 23.0338 31.4128 23.0338C31.7532 23.0338 32.042 22.9855 32.2801 22.8888C32.4797 22.8075 32.6823 22.6923 32.887 22.5432C32.9529 22.4949 33.044 22.5072 33.0917 22.5741L34.1586 24.0552C34.2944 24.2434 34.266 24.5098 34.0877 24.659C33.7168 24.9686 33.3085 25.2144 32.8627 25.3975C32.2912 25.632 31.6924 25.7503 31.0663 25.7503C29.7045 25.7493 28.6396 25.3419 27.8706 24.5263Z" fill="#07D0BD"/>
<path d="M36.3735 24.8894C35.7331 24.3165 35.4139 23.5183 35.4139 22.4959C35.4139 21.4601 35.8121 20.6445 36.6085 20.0499C37.4049 19.4565 38.5306 19.1592 39.9876 19.1592H42.1518C42.1376 17.6256 41.4446 16.8583 40.0697 16.8583C39.5519 16.8583 39.0524 16.9488 38.5691 17.1278C38.1304 17.2913 37.7281 17.5227 37.3624 17.8221C37.3005 17.8725 37.2104 17.8663 37.1587 17.8046L36.0452 16.4726C35.8861 16.2823 35.9104 15.9933 36.1039 15.8379C36.6176 15.4245 37.1871 15.0912 37.8132 14.8382C38.5823 14.5275 39.3675 14.3722 40.171 14.3722C41.7364 14.3722 42.9239 14.8011 43.7335 15.6569C44.543 16.5137 44.9483 17.7573 44.9483 19.3875V25.057C44.9483 25.3029 44.7528 25.5014 44.5106 25.5014H42.932C42.8682 25.5014 42.8124 25.4592 42.7932 25.3975L42.4376 24.2578C41.9472 24.7279 41.4102 25.0941 40.8245 25.3563C40.2389 25.6186 39.633 25.7503 39.0078 25.7503C37.8913 25.7493 37.0128 25.4623 36.3735 24.8894ZM42.1508 22.2058V21.1485H39.8853C39.327 21.1485 38.8883 21.2554 38.5681 21.4694C38.2479 21.6833 38.0878 21.9775 38.0878 22.3498C38.0878 22.6677 38.2205 22.9341 38.486 23.148C38.7515 23.3619 39.0879 23.4689 39.4962 23.4689C40.5043 23.4699 41.3889 23.0482 42.1508 22.2058Z" fill="#07D0BD"/>
<path d="M82.9297 25.561C82.0999 25.0776 81.4596 24.4008 81.0107 23.5296C80.5618 22.6594 80.3369 21.6576 80.3369 20.5251C80.3369 19.4616 80.5679 18.5009 81.031 17.6441C81.493 16.7873 82.1303 16.1177 82.9399 15.6343C83.7494 15.1509 84.6583 14.9091 85.6654 14.9091C86.6725 14.9091 87.55 15.1447 88.2988 15.6137C89.0475 16.0838 89.622 16.7503 90.0243 17.6133C90.4255 18.4773 90.6261 19.4822 90.6261 20.629V20.9715C90.6261 21.2174 90.4306 21.4159 90.1884 21.4159H83.1344C83.257 22.1482 83.5802 22.7253 84.104 23.1459C84.6279 23.5677 85.2784 23.7785 86.0535 23.7785C87.0343 23.7785 87.8388 23.4741 88.4649 22.8641C88.5217 22.8086 88.6098 22.8065 88.6676 22.861L89.929 24.0645C90.1124 24.2393 90.1155 24.5366 89.9321 24.7104C88.8196 25.7606 87.4659 26.2851 85.8701 26.2851C84.7393 26.2862 83.7596 26.0445 82.9297 25.561ZM87.1559 17.821C86.7881 17.4549 86.2713 17.2718 85.6046 17.2718C84.9785 17.2718 84.4577 17.4579 84.0433 17.8313C83.6278 18.2047 83.3462 18.7221 83.1962 19.3855H87.7688C87.7273 18.7087 87.5226 18.1872 87.1559 17.821Z" fill="#07D0BD"/>
<path d="M94.9039 15.2619L95.301 16.5672C96.3213 15.4615 97.519 14.9091 98.8939 14.9091C100.173 14.9091 101.167 15.3442 101.875 16.2144C102.582 17.0846 102.937 18.3004 102.937 19.8617V25.8891C102.937 25.9714 102.872 26.0373 102.791 26.0373H100C99.9193 26.0373 99.8544 25.9714 99.8544 25.8891V20.2351C99.8544 19.3505 99.7085 18.7015 99.4157 18.287C99.1229 17.8725 98.6295 17.6647 97.9354 17.6647C97.5129 17.6647 97.1056 17.7861 96.7104 18.0278C96.3153 18.2695 95.9758 18.6048 95.6901 19.0327V25.8891C95.6901 25.9714 95.6253 26.0373 95.5442 26.0373H92.7538C92.6728 26.0373 92.6079 25.9714 92.6079 25.8891V15.6024C92.6079 15.3566 92.8035 15.1581 93.0456 15.1581H94.7661C94.8289 15.1581 94.8846 15.2002 94.9039 15.2619Z" fill="#07D0BD"/>
<path d="M62.8741 15.2599L63.3108 16.6289C64.3584 15.5232 65.6787 14.9709 67.2714 14.9709H67.5369V17.5618H67.1488C66.4548 17.5618 65.7942 17.6894 65.169 17.9455C64.5429 18.2016 64.0393 18.577 63.6583 19.0749V25.7421C63.6583 25.9056 63.5276 26.0383 63.3665 26.0383H60.8679C60.7068 26.0383 60.5761 25.9056 60.5761 25.7421V15.4543C60.5761 15.2907 60.7068 15.1581 60.8679 15.1581H62.7363C62.7981 15.1581 62.8548 15.1992 62.8741 15.2599Z" fill="#07D0BD"/>
<path d="M71.0893 25.561C70.2595 25.0776 69.6191 24.4008 69.1702 23.5296C68.7214 22.6594 68.4965 21.6576 68.4965 20.5251C68.4965 19.4616 68.7275 18.5009 69.1905 17.6441C69.6525 16.7873 70.2898 16.1177 71.0994 15.6343C71.909 15.1509 72.8178 14.9091 73.825 14.9091C74.8321 14.9091 75.7095 15.1447 76.4583 15.6137C77.2071 16.0838 77.7816 16.7503 78.1838 17.6133C78.585 18.4773 78.7857 19.4822 78.7857 20.629V21.4169H71.2939C71.4165 22.1493 71.7398 22.7263 72.2636 23.147C72.7874 23.5687 73.4369 23.7795 74.213 23.7795C75.1938 23.7795 75.9983 23.4751 76.6245 22.8651C76.6812 22.8096 76.7694 22.8075 76.8271 22.8621L78.0886 24.0655C78.272 24.2403 78.275 24.5376 78.0916 24.7114C76.9791 25.7616 75.6254 26.2862 74.0296 26.2862C72.8989 26.2862 71.9191 26.0445 71.0893 25.561ZM75.3154 17.821C74.9476 17.4549 74.4309 17.2718 73.7642 17.2718C73.138 17.2718 72.6172 17.4579 72.2028 17.8313C71.7874 18.2047 71.5057 18.7221 71.3558 19.3855H75.9284C75.8869 18.7087 75.6822 18.1872 75.3154 17.821Z" fill="#07D0BD"/>
<path d="M57.6469 15.1581H56.0531C55.9265 15.1581 55.814 15.2414 55.7745 15.3648L55.5536 16.0704C55.1311 15.7114 54.6519 15.4275 54.1148 15.2208C53.5768 15.0141 53.0358 14.9102 52.4917 14.9102C51.5251 14.9102 50.6446 15.1385 49.8482 15.5942C49.0518 16.0498 48.4226 16.6999 47.9596 17.5423C47.4965 18.3847 47.2655 19.3526 47.2655 20.4439C47.2655 21.4941 47.4661 22.4095 47.8674 23.1902C48.2686 23.9709 48.8238 24.5685 49.5311 24.983C50.2383 25.3975 51.0489 25.6042 51.9607 25.6042C53.1037 25.6042 54.125 25.2041 55.0227 24.4018V25.127C55.0227 26.0393 54.7542 26.7645 54.2162 27.3034C53.6782 27.8424 52.9942 28.1119 52.1644 28.1119C50.9151 28.1119 49.8705 27.7457 49.0326 27.0123C48.9697 26.9578 48.8755 26.964 48.8228 27.0298L47.6333 28.5274C47.4864 28.7126 47.5107 28.979 47.6829 29.1394C48.1561 29.5786 48.7418 29.9335 49.4389 30.205C50.2889 30.5362 51.2454 30.7029 52.3073 30.7029C53.437 30.7029 54.4411 30.4673 55.3185 29.9983C56.196 29.5282 56.8769 28.872 57.3602 28.0296C57.8435 27.1872 58.0846 26.2265 58.0846 25.1486V15.6045C58.0846 15.3566 57.8891 15.1581 57.6469 15.1581ZM55.0906 21.8582C54.9862 22.0258 54.8616 22.1853 54.7167 22.3303C53.8889 23.1665 52.6568 23.3424 51.6608 22.8549C51.6598 22.8549 51.6598 22.8538 51.6578 22.8538C51.3944 22.7242 51.1461 22.5494 50.9273 22.3251C49.8826 21.2606 49.8857 19.5398 50.9323 18.4793C51.8047 17.5958 53.129 17.4507 54.1493 18.0411C54.355 18.1594 54.5475 18.3065 54.7218 18.4845C54.8636 18.6285 54.9872 18.7869 55.0896 18.9525V21.8582H55.0906Z" fill="#07D0BD"/>
<path d="M12.5649 11.2947C11.8962 10.9121 11.0501 11.1528 10.6732 11.8306L10.6692 11.8389C10.2994 12.5157 10.5364 13.3704 11.2021 13.751C11.731 14.0534 12.3724 13.9659 12.804 13.5792C12.9155 13.4794 13.0117 13.3601 13.0898 13.2223C13.0918 13.2192 13.0928 13.2171 13.0948 13.2141C13.2022 13.0207 13.26 12.8129 13.2711 12.6062C13.3005 12.0857 13.0431 11.5683 12.5649 11.2947Z" fill="#07D0BD"/>
<path d="M108.669 5.56046C107.149 5.00503 105.382 5.33315 104.145 6.55303C102.417 8.25943 102.377 11.0654 104.059 12.8211L104.08 12.8417L104.939 11.9931C104.931 11.987 104.925 11.9798 104.917 11.9726C103.698 10.6992 103.726 8.6616 104.98 7.4232C105.878 6.5376 107.16 6.3 108.264 6.7032C108.703 6.86263 109.114 7.12389 109.462 7.48698C109.469 7.49418 109.475 7.50035 109.481 7.50858L110.339 6.66103C110.333 6.6528 110.327 6.64663 110.32 6.63943C109.841 6.1416 109.274 5.7816 108.669 5.56046Z" fill="#07D0BD"/>
<path d="M110.339 6.66309C110.68 7.02206 110.949 7.42526 111.146 7.85314C111.912 9.51634 111.603 11.5581 110.234 12.9086C108.512 14.6078 105.762 14.5759 104.08 12.8417L104.939 11.9931C106.16 13.247 108.152 13.2675 109.399 12.0363C110.393 11.0551 110.616 9.57394 110.061 8.36743C109.92 8.05886 109.726 7.76777 109.481 7.5096L110.339 6.66309Z" fill="#07D0BD"/>
<path fill-rule="evenodd" clip-rule="evenodd" d="M107.832 8.37257C107.6 8.00846 107.377 7.74823 107.311 7.67417L107.298 7.65977L107.29 7.668C107.225 7.74206 107 8.00435 106.766 8.37257H107.832V8.37257Z" fill="#07D0BD"/>
<path fill-rule="evenodd" clip-rule="evenodd" d="M106.282 10.8823H108.324C108.383 10.7475 108.426 10.5953 108.448 10.4235H106.156C106.178 10.5953 106.223 10.7486 106.282 10.8823Z" fill="#07D0BD"/>
<path fill-rule="evenodd" clip-rule="evenodd" d="M106.218 9.58732C106.181 9.73852 106.156 9.89178 106.147 10.0461H108.456C108.446 9.89178 108.42 9.73852 108.382 9.58732H106.218Z" fill="#07D0BD"/>
<path fill-rule="evenodd" clip-rule="evenodd" d="M108.052 8.75006H106.547C106.471 8.89509 106.4 9.04938 106.339 9.2088H108.26C108.199 9.04938 108.128 8.89509 108.052 8.75006Z" fill="#07D0BD"/>
<path fill-rule="evenodd" clip-rule="evenodd" d="M107.309 11.8008C107.309 11.8008 107.753 11.665 108.09 11.2598H106.52C106.862 11.664 107.309 11.8008 107.309 11.8008Z" fill="#07D0BD"/>
</svg>
