<?xml version="1.0" encoding="utf-8"?>
<!-- Generator: Adobe Illustrator 26.0.3, SVG Export Plug-In . SVG Version: 6.00 Build 0)  -->
<svg version="1.1" id="Camada_1" xmlns="http://www.w3.org/2000/svg" xmlns:xlink="http://www.w3.org/1999/xlink" x="0px" y="0px"
	 viewBox="0 0 37 37" style="enable-background:new 0 0 37 37;" xml:space="preserve">
<style type="text/css">
	.st0{fill:#07D0BD;}
	.st1{fill-rule:evenodd;clip-rule:evenodd;fill:#07D0BD;}
</style>
<path class="st0" d="M24.2,1.1c-6.3-2.3-13.6-0.9-18.7,4c-7.2,7-7.3,18.4-0.4,25.6l0.1,0.1l3.6-3.5c0,0-0.1-0.1-0.1-0.1
	C3.6,22,3.7,13.7,8.9,8.7c3.7-3.6,9-4.6,13.6-2.9c1.8,0.7,3.5,1.7,5,3.2c0,0,0.1,0.1,0.1,0.1l3.6-3.5c0,0-0.1-0.1-0.1-0.1
	C29.1,3.4,26.7,2,24.2,1.1z"/>
<path class="st0" d="M31.1,5.6c1.4,1.5,2.5,3.1,3.3,4.9c3.2,6.8,1.9,15.1-3.8,20.6c-7.1,6.9-18.5,6.8-25.5-0.3l3.6-3.5
	c5.1,5.1,13.3,5.2,18.5,0.2c4.1-4,5-10,2.7-15c-0.6-1.3-1.4-2.4-2.4-3.5L31.1,5.6z"/>
<path class="st1" d="M20.7,12.5c-1-1.5-1.9-2.5-2.2-2.8l-0.1-0.1l0,0c-0.3,0.3-1.2,1.4-2.2,2.9H20.7z"/>
<path class="st1" d="M14.3,22.8h8.5c0.2-0.5,0.4-1.2,0.5-1.9h-9.5C13.9,21.6,14.1,22.2,14.3,22.8z"/>
<path class="st1" d="M14.1,17.5c-0.2,0.6-0.3,1.2-0.3,1.9h9.6c0-0.6-0.1-1.3-0.3-1.9H14.1z"/>
<path class="st1" d="M21.7,14.1h-6.2c-0.3,0.6-0.6,1.2-0.9,1.9h8C22.3,15.3,22,14.7,21.7,14.1z"/>
<path class="st1" d="M18.6,26.5c0,0,1.8-0.6,3.2-2.2h-6.5C16.7,26,18.6,26.5,18.6,26.5z"/>
</svg>
