<svg width="37" height="37" viewBox="0 0 37 37" fill="none" xmlns="http://www.w3.org/2000/svg">
<path d="M24.2075 1.06719C17.9104 -1.19852 10.5938 0.13993 5.47557 5.1161C-1.68156 12.0769 -1.84517 23.5229 5.11898 30.685L5.20287 30.769L8.76044 27.3075C8.72688 27.2823 8.70173 27.2529 8.67236 27.2235C3.62126 22.0292 3.73872 13.7174 8.93247 8.66571C12.6495 5.05316 17.9565 4.08394 22.5293 5.72868C24.3459 6.37902 26.0492 7.44474 27.4881 8.92585C27.5175 8.95522 27.5427 8.98039 27.5679 9.01396L31.1213 5.55665C31.0961 5.52309 31.0709 5.49791 31.0416 5.46854C29.0572 3.4378 26.712 1.96928 24.2075 1.06719Z" fill="#E2E8F0"/>
<path d="M31.1211 5.565C32.5307 7.02932 33.6466 8.67406 34.4605 10.4195C37.6321 17.204 36.3526 25.5326 30.6848 31.0416C23.557 37.973 12.1668 37.843 5.2027 30.7689L8.76028 27.3074C13.8156 32.422 22.0635 32.506 27.2279 27.4836C31.3434 23.4809 32.2664 17.439 29.9674 12.5174C29.3842 11.2586 28.583 10.0712 27.5677 9.01811L31.1211 5.565Z" fill="#E2E8F0"/>
<path fill-rule="evenodd" clip-rule="evenodd" d="M20.7378 12.5383C19.7771 11.053 18.8541 9.99151 18.5814 9.68942L18.5269 9.63068L18.4975 9.66424C18.2248 9.96634 17.2934 11.0363 16.3243 12.5383H20.7378Z" fill="#E2E8F0"/>
<path fill-rule="evenodd" clip-rule="evenodd" d="M14.323 22.7761H22.7765C23.0198 22.2265 23.2002 21.6055 23.2883 20.9048H13.7986C13.8909 21.6055 14.0755 22.2306 14.323 22.7761Z" fill="#E2E8F0"/>
<path fill-rule="evenodd" clip-rule="evenodd" d="M14.0588 17.4937C13.9035 18.1105 13.7987 18.7357 13.7609 19.365H23.322C23.28 18.7357 23.1751 18.1105 23.0157 17.4937H14.0588Z" fill="#E2E8F0"/>
<path fill-rule="evenodd" clip-rule="evenodd" d="M21.6523 14.0783H15.418C15.1034 14.6699 14.8098 15.2993 14.558 15.9496H22.5123C22.2605 15.2993 21.9669 14.6699 21.6523 14.0783Z" fill="#E2E8F0"/>
<path fill-rule="evenodd" clip-rule="evenodd" d="M18.5731 26.5228C18.5731 26.5228 20.4106 25.969 21.8077 24.3159H15.3092C16.723 25.9648 18.5731 26.5228 18.5731 26.5228Z" fill="#E2E8F0"/>
</svg>
